<svg xmlns="http://www.w3.org/2000/svg" width="24" height="24"><path fill-rule="evenodd" d="M12.113 22C13.702 22 20 14.968 20 10.253 20 5.74 16.418 2 12.113 2 7.582 2 4 5.74 4 10.253 4 14.968 10.298 22 12.113 22z" clip-rule="evenodd" opacity=".3"/><path fill="none" stroke="#000" stroke-width="2" d="M12.113 22C13.702 22 20 14.968 20 10.253 20 5.74 16.418 2 12.113 2 7.582 2 4 5.74 4 10.253 4 14.968 10.298 22 12.113 22z" clip-rule="evenodd"/><path d="M12 6c-.406 0-.789.079-1.159.191a1.996 1.996 0 11-2.65 2.65C8.079 9.211 8 9.594 8 10c0 2.206 1.794 4 4 4s4-1.794 4-4-1.794-4-4-4z"/></svg>